{"title":"Scintilla.2014.DVDRip.x264-MenaceIISociety","uid":12072948,"size":862874648,"categoryP":"video","categoryS":"movies","magnet":"?xt=urn:btih:74288971a28d1a9ab31795ab497652a5f48de886&amp;dn=Scintilla.2014.DVDRip.x264-MenaceIISociety&amp;tr=udp%3A%2F%2Ftracker.openbittorrent.com%3A80&amp;tr=udp%3A%2F%2Fopen.demonii.com%3A1337&amp;tr=udp%3A%2F%2Ftracker.coppersurfer.tk%3A6969&amp;tr=udp%3A%2F%2Fexodus.desync.com%3A6969","seeders":3,"leechers":1,"uploader":"xxxlavalxxx","files":4,"time":1435572072,"description":" &lt;a href=&quot;http://extraimago.com/image/sx6&quot; rel=&quot;nofollow&quot; target=&quot;_NEW&quot;&gt;http://extraimago.com/image/sx6&lt;/a&gt;\n &lt;a href=&quot;\nhttp://www.imdb.com/title/tt2798456/&quot; rel=&quot;nofollow&quot; target=&quot;_NEW&quot;&gt;\nhttp://www.imdb.com/title/tt2798456/&lt;/a&gt;\n\n\nAn elite team of mercenaries is hired for a covert operation, deep inside a former Soviet state. Arriving at an underground laboratory, their mission is to secure specimens of genetically engineered human and alien hybrids. Battling with a ferocious armed militia as well as dark, menacing creatures, the odds of survival are stacked against them. \n\nDirector: Billy O'Brien\nWriters: Steve Clark (story), Josh Golga (story)\nStars: John Lynch, Morjana Alaoui, Craig Conway \nGenres: Action | Sci-Fi\nCountry: UK\nLanguage: English | Russian\n\n\nSource: DVD5 RETAIL SAM TBS [THANKS]\n\nGeneral\nComplete name: Scintilla.2014.DVDRip.x264-MenaceIISociety.mp4\nFormat: MPEG-4\nFormat profile: Base Media\nCodec ID: isom\nFile size: 807 MiB\nDuration: 1h 30mn\nOverall bit rate mode: Variable\nOverall bit rate: 1 249 Kbps\nEncoded date: UTC 2015-06-28 23:34:26\nTagged date: UTC 2015-06-28 23:34:26\n\nVideo\nID: 1\nFormat: AVC\nFormat/Info: Advanced Video Codec\nFormat profile: &lt;a class=&quot;__cf_email__&quot; href=&quot;/cdn-cgi/l/email-protection&quot; data-cfemail=&quot;3a72535d527a760e140b&quot;&gt;[email&amp;#160;protected]&lt;/a&gt;&lt;script data-cfhash='f9e31' type=&quot;text/javascript&quot;&gt;\n/* &lt;![CDATA[ */!function(){try{var t=&quot;currentScript&quot;in document?document.currentScript:function(){for(var t=document.getElementsByTagName(&quot;script&quot;),e=t.length;e--;)if(t[e].getAttribute(&quot;data-cfhash&quot;))return t[e]}();if(t&amp;&amp;t.previousSibling){var e,r,n,i,c=t.previousSibling,a=c.getAttribute(&quot;data-cfemail&quot;);if(a){for(e=&quot;&quot;,r=parseInt(a.substr(0,2),16),n=2;a.length-n;n+=2)i=parseInt(a.substr(n,2),16)^r,e+=String.fromCharCode(i);e=document.createTextNode(e),c.parentNode.replaceChild(e,c)}t.parentNode.removeChild(t);}}catch(u){}}()/* ]]&gt; */&lt;/script&gt;\nFormat settings, CABAC: Yes\nFormat settings, ReFrames: 3 frames\nCodec ID: avc1\nCodec ID/Info: Advanced Video Coding\nDuration: 1h 30mn\nBit rate mode: Variable\nBit rate: 888 Kbps\nMaximum bit rate: 40.0 Mbps\nWidth: 720 pixels\nHeight: 304 pixels\nDisplay aspect ratio: 2.35:1\nFrame rate mode: Constant\nFrame rate: 25.000 fps\nColor space: YUV\nChroma subsampling: 4:2:0\nBit depth: 8 bits\nScan type: Progressive\nBits/(Pixel*Frame): 0.162\nStream size: 574 MiB (71%)\nWriting library: x264 core 146 r2538 121396c\n\nAudio\nID: 2\nFormat: AAC\nFormat/Info: Advanced Audio Codec\nFormat profile: LC\nCodec ID: 40\nDuration: 1h 30mn\nBit rate mode: Variable\nBit rate: 353 Kbps\nMaximum bit rate: 429 Kbps\nChannel(s): 6 channels\nChannel positions: Front: L C R, Side: L R, LFE\nSampling rate: 48.0 KHz\nCompression mode: Lossy\nStream size: 230 MiB (29%)\nEncoded date: UTC 2015-06-28 22:57:29\n\n &lt;a href=&quot;\nhttp://extraimago.com/image/sxV&quot; rel=&quot;nofollow&quot; target=&quot;_NEW&quot;&gt;\nhttp://extraimago.com/image/sxV&lt;/a&gt; &lt;a href=&quot;\nhttp://extraimago.com/image/sxu&quot; rel=&quot;nofollow&quot; target=&quot;_NEW&quot;&gt;\nhttp://extraimago.com/image/sxu&lt;/a&gt; &lt;a href=&quot;\nhttp://extraimago.com/image/sxv&quot; rel=&quot;nofollow&quot; target=&quot;_NEW&quot;&gt;\nhttp://extraimago.com/image/sxv&lt;/a&gt; &lt;a href=&quot;\nhttp://extraimago.com/image/sxA&quot; rel=&quot;nofollow&quot; target=&quot;_NEW&quot;&gt;\nhttp://extraimago.com/image/sxA&lt;/a&gt;","torrent":{"xt":"urn:btih:74288971a28d1a9ab31795ab497652a5f48de886","amp;dn":"Scintilla.2014.DVDRip.x264-MenaceIISociety","amp;tr":["udp%3A%2F%2Ftracker.openbittorrent.com%3A80","udp%3A%2F%2Fopen.demonii.com%3A1337","udp%3A%2F%2Ftracker.coppersurfer.tk%3A6969","udp%3A%2F%2Fexodus.desync.com%3A6969"],"infoHash":"74288971a28d1a9ab31795ab497652a5f48de886","infoHashBuffer":{"type":"Buffer","data":[116,40,137,113,162,141,26,154,179,23,149,171,73,118,82,165,244,141,232,134]},"announce":[],"urlList":[]}}